<svg height="1214" width="720" xmlns="http://www.w3.org/2000/svg">
<rect height="1214" fill="#555" width="720"></rect>
<text fill="#7f7" font-family="Courier New" font-size="12" xml:space="preserve">
<tspan x="10" y="26">└─┬ gulp-closure-compiler@0.4.0 </tspan>
<tspan x="10" y="42">  ├─┬ glob@5.0.15 </tspan>
<tspan x="10" y="58">  │ ├─┬ inflight@1.0.6 </tspan>
<tspan x="10" y="74">  │ │ └── wrappy@1.0.2 </tspan>
<tspan x="10" y="90">  │ ├── inherits@2.0.3 </tspan>
<tspan x="10" y="106">  │ ├─┬ minimatch@3.0.3 </tspan>
<tspan x="10" y="122">  │ │ └─┬ brace-expansion@1.1.6 </tspan>
<tspan x="10" y="138">  │ │   ├── balanced-match@0.4.2 </tspan>
<tspan x="10" y="154">  │ │   └── concat-map@0.0.1 </tspan>
<tspan x="10" y="170">  │ ├── once@1.4.0 </tspan>
<tspan x="10" y="186">  │ └── path-is-absolute@1.0.1 </tspan>
<tspan x="10" y="202">  ├─┬ google-closure-compiler@20151015.7.0 </tspan>
<tspan x="10" y="218">  │ ├─┬ chalk@1.1.3 </tspan>
<tspan x="10" y="234">  │ │ ├── ansi-styles@2.2.1 </tspan>
<tspan x="10" y="250">  │ │ ├── escape-string-regexp@1.0.5 </tspan>
<tspan x="10" y="266">  │ │ ├─┬ has-ansi@2.0.0 </tspan>
<tspan x="10" y="282">  │ │ │ └── ansi-regex@2.1.1 </tspan>
<tspan x="10" y="298">  │ │ ├── strip-ansi@3.0.1 </tspan>
<tspan x="10" y="314">  │ │ └── supports-color@2.0.0 </tspan>
<tspan x="10" y="330">  │ ├─┬ through2@2.0.3 </tspan>
<tspan x="10" y="346">  │ │ ├─┬ readable-stream@2.2.6 </tspan>
<tspan x="10" y="362">  │ │ │ ├── buffer-shims@1.0.0 </tspan>
<tspan x="10" y="378">  │ │ │ ├── core-util-is@1.0.2 </tspan>
<tspan x="10" y="394">  │ │ │ ├── isarray@1.0.0 </tspan>
<tspan x="10" y="410">  │ │ │ ├── process-nextick-args@1.0.7 </tspan>
<tspan x="10" y="426">  │ │ │ ├── string_decoder@0.10.31 </tspan>
<tspan x="10" y="442">  │ │ │ └── util-deprecate@1.0.2 </tspan>
<tspan x="10" y="458">  │ │ └── xtend@4.0.1 </tspan>
<tspan x="10" y="474">  │ └─┬ vinyl-sourcemaps-apply@0.2.1 </tspan>
<tspan x="10" y="490">  │   └── source-map@0.5.6 </tspan>
<tspan x="10" y="506">  ├── graceful-fs@4.1.11 </tspan>
<tspan x="10" y="522">  ├─┬ gulp-util@3.0.8 </tspan>
<tspan x="10" y="538">  │ ├── array-differ@1.0.0 </tspan>
<tspan x="10" y="554">  │ ├── array-uniq@1.0.3 </tspan>
<tspan x="10" y="570">  │ ├── beeper@1.1.1 </tspan>
<tspan x="10" y="586">  │ ├── dateformat@2.0.0 </tspan>
<tspan x="10" y="602">  │ ├─┬ fancy-log@1.3.0 </tspan>
<tspan x="10" y="618">  │ │ └── time-stamp@1.0.1 </tspan>
<tspan x="10" y="634">  │ ├─┬ gulplog@1.0.0 </tspan>
<tspan x="10" y="650">  │ │ └── glogg@1.0.0 </tspan>
<tspan x="10" y="666">  │ ├─┬ has-gulplog@0.1.0 </tspan>
<tspan x="10" y="682">  │ │ └── sparkles@1.0.0 </tspan>
<tspan x="10" y="698">  │ ├── lodash._reescape@3.0.0 </tspan>
<tspan x="10" y="714">  │ ├── lodash._reevaluate@3.0.0 </tspan>
<tspan x="10" y="730">  │ ├── lodash._reinterpolate@3.0.0 </tspan>
<tspan x="10" y="746">  │ ├─┬ lodash.template@3.6.2 </tspan>
<tspan x="10" y="762">  │ │ ├── lodash._basecopy@3.0.1 </tspan>
<tspan x="10" y="778">  │ │ ├── lodash._basetostring@3.0.1 </tspan>
<tspan x="10" y="794">  │ │ ├── lodash._basevalues@3.0.0 </tspan>
<tspan x="10" y="810">  │ │ ├── lodash._isiterateecall@3.0.9 </tspan>
<tspan x="10" y="826">  │ │ ├─┬ lodash.escape@3.2.0 </tspan>
<tspan x="10" y="842">  │ │ │ └── lodash._root@3.0.1 </tspan>
<tspan x="10" y="858">  │ │ ├─┬ lodash.keys@3.1.2 </tspan>
<tspan x="10" y="874">  │ │ │ ├── lodash._getnative@3.9.1 </tspan>
<tspan x="10" y="890">  │ │ │ ├── lodash.isarguments@3.1.0 </tspan>
<tspan x="10" y="906">  │ │ │ └── lodash.isarray@3.0.4 </tspan>
<tspan x="10" y="922">  │ │ ├── lodash.restparam@3.6.1 </tspan>
<tspan x="10" y="938">  │ │ └── lodash.templatesettings@3.1.1 </tspan>
<tspan x="10" y="954">  │ ├── minimist@1.2.0 </tspan>
<tspan x="10" y="970">  │ ├─┬ multipipe@0.1.2 </tspan>
<tspan x="10" y="986">  │ │ └─┬ duplexer2@0.0.2 </tspan>
<tspan x="10" y="1002">  │ │   └─┬ readable-stream@1.1.14 </tspan>
<tspan x="10" y="1018">  │ │     └── isarray@0.0.1 </tspan>
<tspan x="10" y="1034">  │ ├── object-assign@3.0.0 </tspan>
<tspan x="10" y="1050">  │ ├── replace-ext@0.0.1 </tspan>
<tspan x="10" y="1066">  │ └─┬ vinyl@0.5.3 </tspan>
<tspan x="10" y="1082">  │   ├── clone@1.0.2 </tspan>
<tspan x="10" y="1098">  │   └── clone-stats@0.0.1 </tspan>
<tspan x="10" y="1114">  ├─┬ mkdirp@0.5.1 </tspan>
<tspan x="10" y="1130">  │ └── minimist@0.0.8 </tspan>
<tspan x="10" y="1146">  ├─┬ temp-write@1.1.2 </tspan>
<tspan x="10" y="1162">  │ └── os-tmpdir@1.0.2 </tspan>
<tspan x="10" y="1178">  ├── through@2.3.8 </tspan>
<tspan x="10" y="1194">  └── uuid@2.0.3</tspan>
</text>
</svg>
